<?xml version="1.0" encoding="UTF-8" standalone="no"?>
<!-- Created with Inkscape (http://www.inkscape.org/) -->

<svg
   xmlns:dc="http://purl.org/dc/elements/1.1/"
   xmlns:cc="http://creativecommons.org/ns#"
   xmlns:rdf="http://www.w3.org/1999/02/22-rdf-syntax-ns#"
   xmlns:svg="http://www.w3.org/2000/svg"
   xmlns="http://www.w3.org/2000/svg"
   xmlns:sodipodi="http://sodipodi.sourceforge.net/DTD/sodipodi-0.dtd"
   xmlns:inkscape="http://www.inkscape.org/namespaces/inkscape"
   width="82.683319mm"
   height="83.364494mm"
   viewBox="0 0 292.97239 295.386"
   id="svg2"
   version="1.1"
   inkscape:version="0.91 r13725"
   sodipodi:docname="Netflix-logo.svg">
  <defs
     id="defs4" />
  <sodipodi:namedview
     id="base"
     pagecolor="#ffffff"
     bordercolor="#666666"
     borderopacity="1.0"
     inkscape:pageopacity="0.0"
     inkscape:pageshadow="2"
     inkscape:zoom="2.56"
     inkscape:cx="47.454396"
     inkscape:cy="145.9398"
     inkscape:document-units="px"
     inkscape:current-layer="layer1"
     showgrid="false"
     inkscape:window-width="1600"
     inkscape:window-height="837"
     inkscape:window-x="-8"
     inkscape:window-y="-8"
     inkscape:window-maximized="1"
     fit-margin-top="0"
     fit-margin-left="0"
     fit-margin-right="0"
     fit-margin-bottom="0" />
  <metadata
     id="metadata7">
    <rdf:RDF>
      <cc:Work
         rdf:about="">
        <dc:format>image/svg+xml</dc:format>
        <dc:type
           rdf:resource="http://purl.org/dc/dcmitype/StillImage" />
        <dc:title></dc:title>
      </cc:Work>
    </rdf:RDF>
  </metadata>
  <g
     inkscape:label="Layer 1"
     inkscape:groupmode="layer"
     id="layer1"
     transform="translate(-197.73685,-519.44806)">
    <g
       id="g10"
       transform="matrix(5.2515307,0,0,-5.2515307,-469.2233,892.51575)">
      <g
         id="g12"
         transform="scale(0.1,0.1)">
        <path
           d="m 1827.91,147.922 -557.88,0 0,562.476 557.88,0 0,-562.476"
           style="fill:#ee2922;fill-opacity:1;fill-rule:nonzero;stroke:none"
           id="path34"
           inkscape:connector-curvature="0" />
        <path
           d="m 1554.84,640.77 0,-7.325 c 0,0 0,-12.91 0,-24.109 -11.25,12.43 -28.34,31.434 -28.34,31.434 l -77.97,0 0,-387.305 44.96,-35.477 46.82,5.86 c 0,0 0.21,20.449 0.35,34.324 15.37,-12.664 36.44,-29.93 36.44,-29.93 l 76.72,7.813 0,364.851 -41.64,39.778 -57.34,0.086"
           style="fill:#000000;fill-opacity:1;fill-rule:nonzero;stroke:none"
           id="path36"
           inkscape:connector-curvature="0" />
        <path
           d="m 1567.63,336.953 -2.62,-0.305 -44.82,293.711 -59.69,0.071 0.02,-368.664 c 0,0 11.88,1.699 37.07,4.57 l -2.59,280.215 2.59,0.246 42.64,-276.086 c 0,0 14.57,1.73 64.12,6.641 l 0,353.046 -38.05,0 1.33,-293.445"
           style="fill:#ffffff;fill-opacity:1;fill-rule:nonzero;stroke:none"
           id="path38"
           inkscape:connector-curvature="0" />
      </g>
    </g>
  </g>
</svg>
